# xmcd
#
# Track frame offsets:
#	150
#	13460
#	25615
#	45009
#	64013
#	81372
#	92719
#	110523
#	121853
#
# Disc length: 1807 seconds
#
# Revision: 0
# Processed by: cddbd v1.5.2PL0 Copyright (c) Steve Scherf et al.
# Submitted via: EasyCDDAExtractor 4.6.0.1
#
DISCID=66070d09
DTITLE=The Geezinslaws - I Wish I Had A Job To Shove (live Austin TX)
DYEAR=1994
DGENRE=Country
TTITLE0=Because Of Country Music (I've Gone Crazy)
TTITLE1=I Wish I Had A Job To Shove
TTITLE2=I Love You Period
TTITLE3=Play It Backwards
TTITLE4=Paint Me On Velvet
TTITLE5=Monkey Man
TTITLE6=I Feel Like Hank Williams Tonight
TTITLE7=Self-Made Man
TTITLE8=You Wouldn't Put The Shuck On Me
EXTD=
EXTT0=
EXTT1=
EXTT2=
EXTT3=
EXTT4=
EXTT5=
EXTT6=
EXTT7=
EXTT8=
PLAYORDER=
